<svg width="65" height="18" viewBox="0 0 65 18" fill="none" xmlns="http://www.w3.org/2000/svg">
<path d="M24.3202 0.150245C25.3575 -0.160042 26.5112 0.210712 27.2858 0.904482C27.8011 1.41208 28.0305 2.10266 28.2982 2.74552C29.4003 5.66062 30.411 8.60755 31.5064 11.5258C34.0431 8.14769 36.5033 4.71544 39.1015 1.37866C39.7116 0.533728 40.7339 -0.0534302 41.8311 0.00385356C42.9781 0.0277218 43.9156 0.920394 44.2248 1.934C44.1167 2.28406 43.8142 2.53388 43.6297 2.84576C42.2134 5.19917 42.5991 8.68393 45.0826 10.2497C45.3186 11.2458 45.2937 12.2817 45.4632 13.2905C49.9038 13.2905 54.3433 13.2905 58.7817 13.2905C59.43 13.3287 59.9586 12.8561 60.1747 12.3055C60.3792 11.572 59.7093 10.7891 58.933 10.7716C55.3956 10.7191 51.8532 10.8225 48.3141 10.6984C46.7233 10.6984 45.0942 10.0619 44.1234 8.81759C43.2257 7.73875 43.1576 6.27165 43.3255 4.95412C43.4834 3.71616 44.135 2.52116 45.2056 1.78761C46.2578 1.07792 47.5029 0.565553 48.8078 0.576692C54.0341 0.48281 59.2638 0.576692 64.4901 0.576692C63.5841 2.02629 62.6998 3.49339 61.7506 4.91593C57.5416 4.95412 53.331 4.90798 49.117 4.93662C48.0215 5.18007 47.8121 6.84608 48.8876 7.24706C49.8467 7.40618 50.8308 7.34413 51.8016 7.36799C54.3466 7.44756 56.8933 7.403 59.4366 7.52712C61.1472 7.44278 63.0339 7.87559 64.1526 9.20426C65.0503 10.2322 65.0486 11.6547 64.9655 12.9213C64.8857 14.3359 64.1526 15.7394 62.9076 16.535C61.6852 17.3029 60.2503 17.7025 58.7883 17.6822C53.0816 17.7618 47.3716 17.7809 41.6665 17.7109C41.3692 17.7158 41.0721 17.6902 40.7805 17.6345C40.4663 14.4139 40.1987 11.1885 39.8729 7.96788C37.5971 10.8989 35.4395 13.9222 33.1222 16.8214C32.4573 17.7761 31.159 18.0944 30.022 17.9766C29.5652 17.9669 29.1229 17.8207 28.7572 17.5585C28.3915 17.2963 28.1205 16.9312 27.9823 16.5143C26.9035 13.491 25.9792 10.4263 24.8921 7.41096C23.5257 10.7636 22.1393 14.1068 20.7828 17.4643C20.7413 17.7348 20.4321 17.7141 20.216 17.7045C16.007 17.6775 11.793 17.827 7.58239 17.6456C4.97587 17.4452 2.32116 16.1499 1.03619 13.8888C0.0766251 12.1764 -0.229061 10.1974 0.171783 8.29249C0.692088 5.56515 2.58048 3.14491 5.10387 1.80352C6.82769 0.896525 8.76097 0.283908 10.7557 0.317323C13.3523 0.317323 15.9472 0.217077 18.542 0.290273C18.5374 0.481751 18.4934 0.670474 18.4124 0.845607C17.8239 2.1329 17.2637 3.43292 16.6437 4.70589C14.7918 4.73294 12.9417 4.78864 11.0899 4.76636C9.44917 4.74567 7.75527 5.26123 6.58832 6.39895C6.0123 6.94804 5.59657 7.63198 5.3825 8.38267C5.16843 9.13336 5.1635 9.92463 5.36818 10.6777C5.79872 12.2785 7.56909 13.3016 9.24802 13.1839C11.8928 13.1839 14.5375 13.1839 17.1823 13.1839C18.8279 9.52409 20.4254 5.83406 22.1077 2.18382C22.3062 1.71489 22.6059 1.29136 22.9872 0.940926C23.3684 0.590495 23.8227 0.32106 24.3202 0.150245Z" fill="white"/>
</svg>
