<svg width="411" height="233" viewBox="0 0 411 233" fill="none" xmlns="http://www.w3.org/2000/svg">
<mask id="mask0_456_1700" style="mask-type:alpha" maskUnits="userSpaceOnUse" x="0" y="0" width="411" height="233">
<rect width="411" height="233" fill="#C4C4C4"/>
</mask>
<g mask="url(#mask0_456_1700)">
<rect x="322.035" y="0.5" width="88.2675" height="86.2983" stroke="#F5FAFF"/>
<circle r="19.3272" transform="matrix(-1 0 0 1 366.341 43.9249)" fill="#FFC299"/>
<path d="M287.725 86.9727L287.725 261.123L188.21 261.123L188.21 186.487C188.21 131.527 232.764 86.9727 287.725 86.9727Z" fill="#FFC299"/>
<rect x="411.037" y="86.9727" width="174.15" height="123.311" transform="rotate(90 411.037 86.9727)" fill="#5895DC"/>
<circle cx="94.1059" cy="181.62" r="94.1059" fill="#F5FAFF"/>
<circle cx="94.1055" cy="181.619" r="29.7461" fill="#1368AA"/>
<path d="M350.595 173.541C350.595 181.794 348.969 189.966 345.811 197.591C342.652 205.217 338.023 212.145 332.187 217.981C326.351 223.817 319.423 228.446 311.798 231.605C304.172 234.763 296 236.389 287.747 236.389L287.747 173.541H350.595Z" fill="#B8B8FF"/>
<path d="M287.747 110.692C296 110.692 304.172 112.318 311.798 115.476C319.423 118.635 326.351 123.264 332.187 129.1C338.023 134.936 342.652 141.864 345.811 149.49C348.969 157.115 350.595 165.287 350.595 173.541L287.747 173.541L287.747 110.692Z" fill="#F5FAFF"/>
</g>
</svg>
