<?xml version="1.0" encoding="UTF-8"?>
<svg width="50%" height="50%" id="Layer_1" data-name="Layer 1" xmlns="http://www.w3.org/2000/svg" xmlns:xlink="http://www.w3.org/1999/xlink" viewBox="0 0 511.16 379.02">
  <defs>
    <style>
      .cls-1 {
        fill: #fff;
      }

      .cls-2 {
        clip-path: url(#clippath-2);
      }

      .cls-3 {
        stroke-width: 5.75px;
      }

      .cls-3, .cls-4, .cls-5, .cls-6, .cls-7, .cls-8 {
        fill: none;
      }

      .cls-3, .cls-4, .cls-5, .cls-6, .cls-8 {
        stroke: #080048;
        stroke-miterlimit: 10;
      }

      .cls-9 {
        fill: #009444;
      }

      .cls-10 {
        clip-path: url(#clippath-1);
      }

      .cls-4 {
        stroke-width: 4px;
      }

      .cls-5 {
        stroke-width: 5px;
      }

      .cls-11 {
        clip-path: url(#clippath);
      }

      .cls-6 {
        stroke-width: 8.62px;
      }

      .cls-12 {
        clip-path: url(#clippath-3);
      }

      .cls-8 {
        stroke-linecap: round;
        stroke-width: 11.49px;
      }
    </style>
    <clipPath id="clippath">
      <rect class="cls-7" width="511.16" height="379.02"/>
    </clipPath>
    <clipPath id="clippath-1">
      <rect class="cls-7" x="299.17" y="0" width="211.99" height="248.15"/>
    </clipPath>
    <clipPath id="clippath-2">
      <rect class="cls-7" y="25.4" width="212.6" height="212.6"/>
    </clipPath>
    <clipPath id="clippath-3">
      <rect class="cls-7" x="158.01" y="85.12" width="206.71" height="293.89"/>
    </clipPath>
  </defs>
  <g id="Artwork_5" data-name="Artwork 5">
    <g class="cls-11">
      <g class="cls-10">
        <path class="cls-5" d="M507.32,163.95c-.29-.22-.6-.43-.81-.72-3.98-5.51-8.99-9.22-15.46-10.97-14.13-3.84-27.31-10.15-39.95-17.76-2.33-1.4-4.64-2.86-6.92-4.37-1.2-.8-1.55-.8-2.03,.89-2.93,10.24-6.07,20.42-9.14,30.62-4.1,13.61-8.21,27.21-12.32,40.82-.21,.7-.54,1.37-.81,2.05-.37-.59-.88-1.13-1.1-1.77-2.42-7.18-4.73-14.41-7.24-21.56-.58-1.66-.23-2.66,.63-4.01,2.96-4.6,5.8-9.36,6.89-14.88,1.41-7.13,.03-12.03-7.39-14.51-4.93-1.65-9.89-1.43-14.9,.33-4.24,1.49-6.45,4.57-7.06,8.85-.3,2.09,.15,4.54,.96,6.51,1.85,4.51,4.01,8.9,6.28,13.2,.93,1.77,1.38,3.16,.59,5.19-1.6,4.09-2.85,8.33-4.24,12.5-1.01,3.02-2.02,6.04-3.05,9.05-.12,.35-.4,.65-.61,.97-.24-.27-.54-.51-.69-.83-.15-.32-.12-.73-.22-1.08-6.85-22.62-13.7-45.25-20.56-67.86-1.75-5.77-1.73-5.7-6.56-2.48-12.65,8.43-26.1,15.04-40.57,19.2-7.61,2.19-14.5,5.47-18.93,12.71-.29,.47-.43,1.03-.43,1.58v52.98c0,1.13,.62,2.17,1.62,2.7,13.51,7.13,27.49,13.01,42.22,16.67,8.2,2.04,16.54,3.46,24.84,5.03,17.04,3.23,34.29,3.01,51.4,2.03,27.26-1.56,53.5-8.34,78.33-20.61,2.13-1.05,4.21-2.25,6.25-3.49,.36-.22,.63-.32,.83-.33,.39-.5,.89-.93,1.49-1.23v-53.41c-.62-.54-1.06-1.23-1.34-1.99Z"/>
        <path class="cls-5" d="M465.32,68.35c0,36.37-26.94,65.85-60.16,65.85s-60.16-29.48-60.16-65.85S371.94,2.5,405.16,2.5s60.16,29.48,60.16,65.85Z"/>
      </g>
      <g class="cls-2">
        <path class="cls-1" d="M206.85,131.7c0,55.53-45.02,100.55-100.55,100.55S5.75,187.23,5.75,131.7,50.77,31.14,106.3,31.14s100.55,45.02,100.55,100.55"/>
        <circle class="cls-3" cx="106.3" cy="131.7" r="100.55" transform="translate(-.34 .27) rotate(-.15)"/>
        <line class="cls-3" x1="106.53" y1="41.67" x2="106.53" y2="60.27"/>
        <line class="cls-3" x1="106.06" y1="202.86" x2="106.06" y2="222.1"/>
        <line class="cls-3" x1="195.69" y1="131.7" x2="175.75" y2="131.7"/>
        <line class="cls-3" x1="36.32" y1="131.7" x2="16.91" y2="131.7"/>
        <circle class="cls-3" cx="106.3" cy="131.7" r="89.78" transform="translate(-25.67 237.66) rotate(-89.85)"/>
        <line class="cls-8" x1="106.06" y1="131.7" x2="106.53" y2="74.22"/>
        <line class="cls-8" x1="146.18" y1="130.99" x2="106.3" y2="131.7"/>
        <path class="cls-1" d="M117.07,131.7c0,5.95-4.82,10.77-10.77,10.77s-10.77-4.82-10.77-10.77,4.82-10.77,10.77-10.77,10.77,4.82,10.77,10.77"/>
        <path class="cls-6" d="M117.07,131.7c0,5.95-4.82,10.77-10.77,10.77s-10.77-4.82-10.77-10.77,4.82-10.77,10.77-10.77,10.77,4.82,10.77,10.77Z"/>
      </g>
      <g class="cls-12">
        <path class="cls-9" d="M308.75,238.94c27.53,4.93,52.17,27.46,55.58,56.32,2.58,20.74-8.21,41.85-23.32,55.25-36.63,32.26-92.11,36.46-135.48,16.04-32.44-15.2-58-50.07-43.24-86.46,8.92-21.29,29.69-36.88,51.96-41.15-7.09,4.92-13.31,10.51-18.58,16.65-14.14,16.17-22.24,39.04-9.82,58.42,23.49,34.91,81.72,39.93,118.19,24.9,26.87-10.75,46.57-33.63,34.99-63.3-6.07-15.08-16.82-27.2-30.29-36.67"/>
        <path class="cls-1" d="M261.2,87.12c-39.14,0-70.87,31.73-70.87,70.87s70.87,149.43,70.87,149.43c0,0,70.87-110.3,70.87-149.43s-31.73-70.87-70.87-70.87m0,107.04c-19.57,0-35.43-15.86-35.43-35.43s15.86-35.43,35.43-35.43,35.43,15.86,35.43,35.43-15.86,35.43-35.43,35.43"/>
        <path class="cls-4" d="M261.2,87.12c-39.14,0-70.87,31.73-70.87,70.87s70.87,149.43,70.87,149.43c0,0,70.87-110.3,70.87-149.43s-31.73-70.87-70.87-70.87Zm0,107.04c-19.57,0-35.43-15.86-35.43-35.43s15.86-35.43,35.43-35.43,35.43,15.86,35.43,35.43-15.86,35.43-35.43,35.43Z"/>
      </g>
    </g>
  </g>
</svg>