<?xml version="1.0" encoding="UTF-8"?>
<svg id="Layer_1" data-name="Layer 1" xmlns="http://www.w3.org/2000/svg" xmlns:xlink="http://www.w3.org/1999/xlink" viewBox="0 0 169.19 142.96">
  <defs>
    <style>
      .cls-1 {
        fill: #fff;
      }

      .cls-2 {
        stroke-width: 2px;
      }

      .cls-2, .cls-3, .cls-4, .cls-5 {
        fill: none;
      }

      .cls-2, .cls-4, .cls-5 {
        stroke: #080048;
        stroke-miterlimit: 10;
      }

      .cls-6 {
        clip-path: url(#clippath-1);
      }

      .cls-7 {
        clip-path: url(#clippath);
      }

      .cls-8 {
        fill: #231f20;
      }

      .cls-4 {
        stroke-linecap: round;
        stroke-width: 3px;
      }
    </style>
    <clipPath id="clippath">
      <rect class="cls-3" width="169.19" height="142.96"/>
    </clipPath>
    <clipPath id="clippath-1">
      <rect class="cls-3" width="169.19" height="142.96"/>
    </clipPath>
  </defs>
  <g id="Admin">
    <g class="cls-7">
      <rect class="cls-1" x="63.86" y="109.94" width="41.46" height="26.02"/>
      <rect class="cls-5" x="63.86" y="109.94" width="41.46" height="26.02"/>
      <g class="cls-6">
        <path class="cls-1" d="M128.09,142.46H41.1v-8.12c0-2.25,1.82-4.07,4.07-4.07H124.18c2.16,0,3.91,1.75,3.91,3.9v8.29Z"/>
        <path class="cls-5" d="M128.09,142.46H41.1v-8.12c0-2.25,1.82-4.07,4.07-4.07H124.18c2.16,0,3.91,1.75,3.91,3.9v8.29Z"/>
        <path class="cls-1" d="M154.14,116.45H15.05c-7.76,0-14.05-6.29-14.05-14.05V15.05C1,7.29,7.29,1,15.05,1H154.14c7.76,0,14.05,6.29,14.05,14.05V102.4c0,7.76-6.29,14.05-14.05,14.05"/>
        <path class="cls-2" d="M15.05,1H154.14c7.75,0,14.05,6.3,14.05,14.05V102.4c0,7.75-6.3,14.05-14.05,14.05H15.05c-7.75,0-14.05-6.3-14.05-14.05V15.05C1,7.3,7.3,1,15.05,1Z"/>
        <line class="cls-5" x1="18.02" y1="22.41" x2="73.17" y2="22.41"/>
        <rect class="cls-8" x="59.51" y="18.86" width="5.73" height="7.25"/>
        <rect class="cls-5" x="59.51" y="18.86" width="5.73" height="7.25"/>
        <line class="cls-5" x1="18.02" y1="35.41" x2="73.17" y2="35.41"/>
        <rect class="cls-8" x="56.51" y="31.86" width="5.73" height="7.25"/>
        <rect class="cls-5" x="56.51" y="31.86" width="5.73" height="7.25"/>
        <line class="cls-5" x1="18.02" y1="48.41" x2="73.17" y2="48.41"/>
        <rect class="cls-8" x="28.51" y="44.86" width="5.73" height="7.25"/>
        <rect class="cls-5" x="28.51" y="44.86" width="5.73" height="7.25"/>
        <line class="cls-5" x1="18.02" y1="60.41" x2="73.17" y2="60.41"/>
        <rect class="cls-8" x="64.51" y="56.86" width="5.73" height="7.25"/>
        <rect class="cls-5" x="64.51" y="56.86" width="5.73" height="7.25"/>
        <path class="cls-1" d="M143.67,55.8h-28.33v-16.86c0-2.98,2.42-5.4,5.4-5.4h17.71c2.89,0,5.23,2.34,5.23,5.23v17.03Z"/>
        <path class="cls-5" d="M143.67,55.8h-28.33v-16.86c0-2.98,2.42-5.4,5.4-5.4h17.71c2.89,0,5.23,2.34,5.23,5.23v17.03Z"/>
        <path class="cls-1" d="M139.29,24.68c0,4.89-4.38,8.85-9.78,8.85s-9.78-3.96-9.78-8.85,4.38-8.85,9.78-8.85,9.78,3.96,9.78,8.85"/>
        <ellipse class="cls-5" cx="129.51" cy="24.68" rx="9.78" ry="8.85"/>
        <line class="cls-5" x1="98.5" y1="64.23" x2="160.06" y2="64.23"/>
        <line class="cls-5" x1="98.67" y1="68.61" x2="159.89" y2="68.61"/>
        <line class="cls-5" x1="98.84" y1="72.83" x2="159.55" y2="72.83"/>
        <line class="cls-5" x1="98.84" y1="76.71" x2="132.91" y2="76.71"/>
        <rect class="cls-5" x="13.49" y="90.62" width="14.67" height="12.14"/>
        <rect class="cls-5" x="32.49" y="90.62" width="14.67" height="12.14"/>
        <rect class="cls-5" x="51.49" y="90.62" width="14.67" height="12.14"/>
        <rect class="cls-5" x="70.49" y="90.62" width="14.67" height="12.14"/>
        <rect class="cls-5" x="8.26" y="88.26" width="83.14" height="17.54"/>
        <line class="cls-5" x1="97.2" y1="90.7" x2="155.04" y2="90.7"/>
        <line class="cls-5" x1="97.2" y1="95.59" x2="155.04" y2="95.59"/>
        <line class="cls-5" x1="97.2" y1="100.15" x2="135.31" y2="100.15"/>
        <polyline class="cls-4" points="25.12 92.98 18.55 99.56 16.2 96.34"/>
        <polyline class="cls-4" points="63.12 92.98 56.55 99.56 54.2 96.34"/>
      </g>
    </g>
  </g>
</svg>