<?xml version="1.0" encoding="UTF-8"?>
<svg id="Layer_1" data-name="Layer 1" xmlns="http://www.w3.org/2000/svg" xmlns:xlink="http://www.w3.org/1999/xlink" viewBox="0 0 129.25 133.02">
  <defs>
    <style>
      .cls-1 {
        fill: #fff;
      }

      .cls-2 {
        stroke-width: 2px;
      }

      .cls-2, .cls-3, .cls-4, .cls-5, .cls-6, .cls-7 {
        fill: none;
      }

      .cls-2, .cls-3, .cls-4, .cls-5, .cls-7 {
        stroke: #141045;
        stroke-miterlimit: 10;
      }

      .cls-3 {
        stroke-width: 3px;
      }

      .cls-8 {
        clip-path: url(#clippath-1);
      }

      .cls-4 {
        stroke-linecap: round;
      }

      .cls-4, .cls-7 {
        stroke-width: 4px;
      }

      .cls-9 {
        clip-path: url(#clippath);
      }
    </style>
    <clipPath id="clippath">
      <rect class="cls-6" width="129.25" height="133.02"/>
    </clipPath>
    <clipPath id="clippath-1">
      <rect class="cls-6" width="129.25" height="133.02"/>
    </clipPath>
  </defs>
  <g id="ClipBoard">
    <g class="cls-9">
      <g class="cls-8">
        <path class="cls-1" d="M37.26,126.19l-28.76-23.81C.87,96.07-.2,84.77,6.12,77.14L67.62,2.82l58.81,48.67-59.5,71.9c-7.42,8.96-20.7,10.22-29.66,2.8"/>
        <path class="cls-2" d="M37.26,126.19l-28.76-23.81C.87,96.07-.2,84.77,6.12,77.14L67.62,2.82l58.81,48.67-59.5,71.9c-7.42,8.96-20.7,10.22-29.66,2.8Z"/>
        <rect class="cls-1" x="9.7" y="39.4" width="103.34" height="61.67" transform="translate(-31.87 72.74) rotate(-50.39)"/>
        <rect class="cls-5" x="9.7" y="39.4" width="103.34" height="61.67" transform="translate(-31.87 72.74) rotate(-50.39)"/>
        <path class="cls-1" d="M112.76,49L72.62,15.79c4.12-4.98,11.49-5.67,16.47-1.55l22.12,18.3c4.98,4.12,5.67,11.49,1.55,16.47Z"/>
        <path class="cls-7" d="M112.76,49L72.62,15.79c4.12-4.98,11.49-5.67,16.47-1.55l22.12,18.3c4.98,4.12,5.67,11.49,1.55,16.47Z"/>
        <path class="cls-1" d="M107.62,34.53l-19.82-16.4c-1.67-1.38-1.91-3.86-.52-5.54,1.39-1.67,3.86-1.91,5.54-.52l19.82,16.4c1.67,1.39,1.91,3.86,.52,5.54-1.38,1.67-3.86,1.91-5.54,.52"/>
        <path class="cls-3" d="M107.62,34.53l-19.82-16.4c-1.67-1.38-1.91-3.86-.52-5.54,1.39-1.67,3.86-1.91,5.54-.52l19.82,16.4c1.67,1.39,1.91,3.86,.52,5.54-1.38,1.67-3.86,1.91-5.54,.52Z"/>
        <line class="cls-5" x1="78.03" y1="34.89" x2="103.23" y2="55.47"/>
        <line class="cls-5" x1="76.29" y1="37.32" x2="101.19" y2="57.92"/>
        <line class="cls-5" x1="74.53" y1="39.45" x2="88.95" y2="51.38"/>
        <rect class="cls-5" x="63.31" y="24.87" width="10.63" height="12.76" transform="translate(.8 64.19) rotate(-50.39)"/>
        <rect class="cls-5" x="49.34" y="41.74" width="10.63" height="12.76" transform="translate(-17.26 59.55) rotate(-50.39)"/>
        <rect class="cls-5" x="34.97" y="59.1" width="10.63" height="12.76" transform="translate(-35.85 54.77) rotate(-50.39)"/>
        <rect class="cls-5" x="19.11" y="78.27" width="10.63" height="12.76" transform="translate(-56.36 49.5) rotate(-50.39)"/>
        <line class="cls-5" x1="64.56" y1="52.17" x2="88.61" y2="71.8"/>
        <line class="cls-5" x1="62.49" y1="54.33" x2="74.12" y2="63.95"/>
        <line class="cls-5" x1="50.16" y1="69.23" x2="73.25" y2="88.35"/>
        <line class="cls-5" x1="48.09" y1="71.39" x2="71.36" y2="90.64"/>
        <line class="cls-5" x1="46.09" y1="74.15" x2="66.89" y2="91.36"/>
        <line class="cls-5" x1="33" y1="90.64" x2="52.65" y2="106.91"/>
        <polyline class="cls-4" points="34.08 84.18 22.34 86.51 22.43 82.08"/>
        <polyline class="cls-4" points="50.08 64.85 38.33 67.18 38.43 62.75"/>
        <polyline class="cls-4" points="64.58 47.32 52.84 49.65 52.94 45.22"/>
      </g>
    </g>
  </g>
</svg>